<svg width="40" viewBox="0 0 90 76" fill="none" xmlns="http://www.w3.org/2000/svg">
<path d="M74.9999 28.3613H57.142L40.7201 1.19059C40.5011 0.828841 40.1849 0.528215 39.8035 0.319143C39.4221 0.11007 38.9891 -2.61348e-05 38.5482 4.65351e-09L28.3138 4.65351e-09C26.6528 4.65351e-09 25.4544 1.50226 25.9106 3.01191L33.5716 28.3613H17.4997L10.7496 19.8529C10.2778 19.2576 9.53557 18.9076 8.74963 18.9076H2.50116C0.87459 18.9076 -0.319166 20.3522 0.0761485 21.8441L4.99961 37.8151L0.0761485 53.7861C-0.319166 55.278 0.87459 56.7227 2.50116 56.7227H8.74963C9.53713 56.7227 10.2778 56.3726 10.7496 55.7773L17.4997 47.2689H33.5716L25.9106 72.6168C25.4544 74.1265 26.6528 75.6302 28.3138 75.6302H38.5482C39.4451 75.6302 40.2732 75.1753 40.7185 74.4396L57.142 47.2689H74.9999C80.5234 47.2689 90 43.0368 90 37.8151C90 32.5934 80.5234 28.3613 74.9999 28.3613Z" fill="#3562A5"/>
</svg>
