<svg width="40"  viewBox="0 0 90 76" fill="none" xmlns="http://www.w3.org/2000/svg">
<path d="M43.8068 19.6205L15.0012 45.2583V72.9288C15.0012 73.6453 15.2646 74.3324 15.7334 74.839C16.2022 75.3456 16.838 75.6302 17.501 75.6302L35.009 75.5813C35.6698 75.5777 36.3025 75.2915 36.7686 74.7853C37.2347 74.2791 37.4963 73.594 37.4963 72.8799V56.7206C37.4963 56.0041 37.7597 55.317 38.2285 54.8104C38.6973 54.3038 39.3331 54.0192 39.9961 54.0192H49.9954C50.6584 54.0192 51.2942 54.3038 51.763 54.8104C52.2318 55.317 52.4952 56.0041 52.4952 56.7206V72.8681C52.4941 73.2235 52.558 73.5757 52.6832 73.9044C52.8084 74.2332 52.9923 74.5319 53.2246 74.7837C53.4568 75.0354 53.7327 75.2352 54.0365 75.3715C54.3403 75.5077 54.666 75.5779 54.995 75.5779L72.4967 75.6302C73.1597 75.6302 73.7956 75.3456 74.2644 74.839C74.7332 74.3324 74.9966 73.6453 74.9966 72.9288V45.2397L46.1972 19.6205C45.8586 19.3255 45.4369 19.1647 45.002 19.1647C44.5671 19.1647 44.1453 19.3255 43.8068 19.6205V19.6205ZM89.308 37.0461L76.2465 25.4116V2.02604C76.2465 1.4887 76.0489 0.973368 75.6973 0.593413C75.3457 0.213457 74.8688 0 74.3716 0H65.6223C65.125 0 64.6482 0.213457 64.2966 0.593413C63.9449 0.973368 63.7474 1.4887 63.7474 2.02604V14.2852L49.7594 1.84876C48.4171 0.65505 46.7326 0.00238624 44.9942 0.00238624C43.2557 0.00238624 41.5713 0.65505 40.2289 1.84876L0.680414 37.0461C0.490566 37.2156 0.333496 37.424 0.21818 37.6592C0.102864 37.8943 0.0315613 38.1518 0.00834647 38.4168C-0.0148683 38.6817 0.0104596 38.9491 0.082883 39.2035C0.155306 39.4579 0.273406 39.6943 0.430434 39.8994L4.4145 45.1333C4.5711 45.3391 4.76372 45.5095 4.98133 45.6347C5.19894 45.7599 5.43727 45.8375 5.68267 45.8631C5.92807 45.8887 6.17573 45.8617 6.41147 45.7837C6.64721 45.7057 6.8664 45.5782 7.05649 45.4085L43.8068 12.6982C44.1453 12.4033 44.5671 12.2424 45.002 12.2424C45.4369 12.2424 45.8586 12.4033 46.1972 12.6982L82.9491 45.4085C83.1388 45.5782 83.3577 45.7058 83.5931 45.7841C83.8285 45.8624 84.0759 45.8897 84.3211 45.8647C84.5663 45.8396 84.8045 45.7625 85.0222 45.6379C85.2398 45.5133 85.4326 45.3435 85.5895 45.1384L89.5736 39.9045C89.7304 39.6982 89.848 39.4605 89.9196 39.205C89.9912 38.9495 90.0153 38.6812 89.9906 38.4156C89.9659 38.15 89.8929 37.8922 89.7758 37.6572C89.6586 37.4222 89.4996 37.2145 89.308 37.0461V37.0461Z" fill="#3562A5"/>
</svg>
