<svg width="40" viewBox="0 0 119 100" fill="none" xmlns="http://www.w3.org/2000/svg">
<path d="M74.4206 47.2853L62.8699 69.4716C61.4755 72.1723 57.4316 72.083 56.1533 69.3376L42.9293 41.1473L35.957 57.1508H14.0874L56.5019 98.778C58.152 100.407 60.8247 100.407 62.4748 98.778L104.913 57.1508H79.5568L74.4206 47.2853ZM110.095 9.36332L109.538 8.80531C97.5685 -2.9351 77.9765 -2.9351 65.9842 8.80531L59.5 15.1889L53.0158 8.82763C41.0468 -2.93511 21.4315 -2.93511 9.46248 8.82763L8.9047 9.36332C-2.41359 20.4788 -2.90165 38.1787 7.20811 50.0084H31.0067L39.3502 30.7684C40.6052 27.8891 44.835 27.8221 46.183 30.6791L59.7092 59.5391L71.0972 37.6876C72.4684 35.0538 76.3729 35.0538 77.7441 37.6876L84.1585 50.0084H111.792C121.902 38.1787 121.414 20.4788 110.095 9.36332V9.36332Z" fill="#3562A5"/>
</svg>
