<svg width="40" viewBox="0 0 73 76" fill="none" xmlns="http://www.w3.org/2000/svg">
<path d="M36.0143 28.8114H43.2171V18.0071H54.0214V10.8043H43.2171V0H36.0143V10.8043H25.21V18.0071H36.0143V28.8114ZM21.6086 61.2243C17.647 61.2243 14.4417 64.4656 14.4417 68.4271C14.4417 72.3887 17.647 75.63 21.6086 75.63C25.5701 75.63 28.8114 72.3887 28.8114 68.4271C28.8114 64.4656 25.5701 61.2243 21.6086 61.2243ZM57.6228 61.2243C53.6613 61.2243 50.456 64.4656 50.456 68.4271C50.456 72.3887 53.6613 75.63 57.6228 75.63C61.5844 75.63 64.8257 72.3887 64.8257 68.4271C64.8257 64.4656 61.5844 61.2243 57.6228 61.2243ZM22.2208 49.5196L22.3289 49.0875L25.5701 43.2171H52.4008C55.1018 43.2171 57.4788 41.7406 58.7033 39.5077L72.6048 14.2617L66.3383 10.8043H66.3023L62.3407 18.0071L52.4008 36.0143H27.1188L26.6506 35.0419L18.5834 18.0071L15.162 10.8043L11.7767 3.60143H0V10.8043H7.20286L20.168 38.1391L15.3061 46.9626C14.7298 47.971 14.4057 49.1595 14.4057 50.42C14.4057 54.3816 17.647 57.6229 21.6086 57.6229H64.8257V50.42H23.1212C22.653 50.42 22.2208 50.0238 22.2208 49.5196Z" fill="white"/>
</svg>
