<svg width="60"  viewBox="0 0 90 76" fill="none" xmlns="http://www.w3.org/2000/svg">
<path d="M88.7592 14.2545L61.3832 0C58.557 4.10648 52.3 6.97216 45.0025 6.97216C37.705 6.97216 31.4481 4.10648 28.6219 0L1.24581 14.2545C0.135015 14.8454 -0.314925 16.2635 0.23344 17.4304L8.27612 34.3438C8.83855 35.5108 10.1884 35.9834 11.2992 35.4074L19.2575 31.3156C20.7479 30.5475 22.4914 31.6849 22.4914 33.4427V70.9033C22.4914 73.5179 24.5021 75.6302 26.9908 75.6302H62.9861C65.4748 75.6302 67.4855 73.5179 67.4855 70.9033V33.428C67.4855 31.6849 69.229 30.5327 70.7194 31.3009L78.6777 35.3926C79.7885 35.9834 81.1383 35.5108 81.7008 34.329L89.7575 17.4304C90.3199 16.2635 89.87 14.8306 88.7592 14.2545V14.2545Z" fill="#3562A5"/>
</svg>
